<?xml version="1.0" encoding="utf-8"?>
<!-- Generator: Adobe Illustrator 14.0.0, SVG Export Plug-In . SVG Version: 6.00 Build 43363)  -->
<!DOCTYPE svg PUBLIC "-//W3C//DTD SVG 1.0//EN" "http://www.w3.org/TR/2001/REC-SVG-20010904/DTD/svg10.dtd">
<svg version="1.0" id="Layer_1" xmlns="http://www.w3.org/2000/svg" xmlns:xlink="http://www.w3.org/1999/xlink" x="0px" y="0px"
	 width="91.141px" height="100px" viewBox="0 0 91.141 100" enable-background="new 0 0 91.141 100" xml:space="preserve">
<path d="M29.743,53.299c0,7.658,6.147,13.864,13.731,13.864c4.081,0,7.735-1.808,10.251-4.661L29.743,38.521
	C29.743,44.933,29.743,51.183,29.743,53.299z"/>
<path d="M57.204,48.604c0-4.833,0-25.27,0-31.075c0-7.657-6.147-13.864-13.73-13.864c-7.584,0-13.731,6.207-13.731,13.864
	c0,0.767,0,2.042,0,3.641l27.46,27.46C57.203,48.621,57.204,48.613,57.204,48.604z"/>
<polygon points="48.094,88.41 48.094,88.412 48.094,88.41 "/>
<path d="M71.424,51.657v-11.84h-9.242v11.84c0,0.622-0.046,1.231-0.116,1.835l7.525,7.524
	C70.771,58.128,71.424,54.967,71.424,51.657z"/>
<path d="M64.626,73.403l-6.546-6.546c-2.853,3.116-6.939,5.086-11.488,5.086h-6.236c-8.598,0-15.59-6.993-15.59-15.59V44.513h-9.242
	v11.841c0,13.188,10.334,24.002,23.331,24.781v9.625H24.992V100h36.963v-9.24H48.096h-0.002l0,0l0,0l0,0v-0.002l-0.003,0.002v-0.002
	h0.003l0,0l0,0l0,0v-9.623C54.589,80.745,60.419,77.85,64.626,73.403z"/>
<polygon points="48.096,88.41 48.094,88.41 48.094,88.412 "/>
<rect x="48.093" y="88.411" width="0.002" height="0"/>
<polygon points="48.091,88.412 48.094,88.41 48.091,88.41 "/>
<polygon points="48.094,88.412 48.094,88.412 48.094,88.412 48.094,88.41 48.094,88.41 "/>
<rect x="41.096" y="-14.402" transform="matrix(-0.7071 0.7071 -0.7071 -0.7071 110.0156 45.5682)" width="8.949" height="119.942"/>
</svg>
