<?xml version="1.0" encoding="utf-8"?>
<!-- Generator: Adobe Illustrator 15.1.0, SVG Export Plug-In . SVG Version: 6.00 Build 0)  -->
<!DOCTYPE svg PUBLIC "-//W3C//DTD SVG 1.1//EN" "http://www.w3.org/Graphics/SVG/1.1/DTD/svg11.dtd">
<svg version="1.1" id="Layer_1" xmlns="http://www.w3.org/2000/svg" xmlns:xlink="http://www.w3.org/1999/xlink" x="0px" y="0px"
	 width="60px" height="100px" viewBox="0 0 60 100" enable-background="new 0 0 60 100" xml:space="preserve">
<path d="M52,38v14c0,9.757-8.242,18-18,18l0,0h-8c-9.757,0-18-8.243-18-18V38H0v14c0,14.094,11.906,26,26,26v14H9v8h42v-8H34V78l0,0
	c14.094,0,26-11.906,26-26V38H52z"/>
<path d="M26,64h8c5.714,0,10.788-4.483,11.804-10H33.917v-4H46v-4H33.917v-4H46v-4H33.917v-4H46v-4H33.917v-4H46v-4H33.917v-4H46v-4
	H33.917v-4h11.887C44.788,4.483,39.714,0,34,0h-8c-6.393,0-12,5.607-12,12v40C14,58.393,19.607,64,26,64z"/>
</svg>
